<svg id="Layer_1" data-name="Layer 1" xmlns="http://www.w3.org/2000/svg" viewBox="0 0 16 16"><defs><style>.cls-1{fill:#80f5d2;}.cls-2{fill:#09161d;fill-rule:evenodd;}</style></defs><rect class="cls-1" width="16" height="16" rx="3.94"/><path class="cls-2" d="M4.73,8.64A4.94,4.94,0,0,1,5,6.53a2,2,0,0,1,.87-.87,4.94,4.94,0,0,1,2.11-.22h1.6a4.94,4.94,0,0,1,2.11.22,2,2,0,0,1,.87.87,4.94,4.94,0,0,1,.22,2.11V9.1a4.94,4.94,0,0,1-.22,2.11,2,2,0,0,1-.87.87,4.94,4.94,0,0,1-2.11.22h-3a2.77,2.77,0,0,1-1.21-.13,1.13,1.13,0,0,1-.5-.49,3,3,0,0,1-.12-1.21Zm2.86.23a.57.57,0,0,1,.57-.57.58.58,0,0,1,.57.57V10a.58.58,0,0,1-.57.58A.57.57,0,0,1,7.59,10Zm2.85-.57a.58.58,0,0,0-.57.57V10a.58.58,0,0,0,.57.58A.57.57,0,0,0,11,10V8.87A.57.57,0,0,0,10.44,8.3Z"/><path class="cls-2" d="M6.72,3.72a.56.56,0,0,1-.49.63,2.26,2.26,0,0,0-.44.09A3.14,3.14,0,0,0,3.73,6.51a2.15,2.15,0,0,0-.09.43.58.58,0,0,1-.64.5.59.59,0,0,1-.5-.64,3.21,3.21,0,0,1,.14-.63A4.28,4.28,0,0,1,5.45,3.35a4,4,0,0,1,.64-.13A.56.56,0,0,1,6.72,3.72Z"/></svg>